<?xml version="1.0" encoding="UTF-8"?>
<svg id="text" xmlns="http://www.w3.org/2000/svg" viewBox="0 0 49.61 49.61">
  <defs>
    <style>
      .cls-1 {
        fill: #fff;
      }

      .cls-2 {
        stroke: #fff;
        stroke-miterlimit: 10;
      }
    </style>
  </defs>
  <g>
    <polygon points="6.52 6.16 .88 .53 48.72 .53 43.09 6.16 6.52 6.16"/>
    <path class="cls-1" d="M48.12.78l-5.13,5.13H6.62L1.49.78h46.63M49.33.28H.28l6.13,6.13h36.78L49.33.28h0Z"/>
  </g>
  <g>
    <polygon points=".88 49.08 6.52 43.44 43.09 43.44 48.72 49.08 .88 49.08"/>
    <path class="cls-1" d="M42.99,43.7l5.13,5.13H1.49l5.13-5.13h36.37M43.2,43.2H6.41L.28,49.33h49.05l-6.13-6.13h0Z"/>
  </g>
  <g>
    <polygon points=".53 .88 6.16 6.51 6.16 43.09 .53 48.72 .53 .88"/>
    <path class="cls-1" d="M.78,1.49l5.13,5.13v36.37l-5.13,5.13V1.49M.28.28v49.05l6.13-6.13V6.41L.28.28H.28Z"/>
  </g>
  <line x1="43.37" y1="6.24" x2="43.36" y2="43.32"/>
  <line x1="48.48" y1="1.12" x2="48.48" y2="48.23"/>
  <polygon class="cls-2" points="37.06 37.06 12.54 37.06 18.67 30.93 30.93 30.93 37.06 37.06"/>
  <polygon class="cls-2" points="12.54 12.54 37.06 12.54 30.93 18.67 18.67 18.67 12.54 12.54"/>
  <polygon class="cls-2" points="37.06 12.54 37.06 37.06 30.93 30.93 30.93 18.67 37.06 12.54"/>
  <rect class="cls-2" x="18.67" y="18.67" width="6.13" height="12.26"/>
  <line x1="13.33" y1="13.34" x2="13.4" y2="36.12"/>
</svg>